# xmcd CD database file
#
# Track frame offsets:
#	150
#	18429
#	34989
#	47777
#	65513
#	80253
#	96647
#	110576
#	128008
#	144994
#	158763
#	173001
#	189503
#	205931
#
# Disc length: 2938 seconds
#
# Revision: 0
# Processed by: cddbd v1.5.2PL0 Copyright (c) Steve Scherf et al.
# Submitted via: CDex 1.51
#
DISCID=be0b780e
DTITLE=Doug Stone - In A Different Light
DYEAR=2005
DGENRE=Country
TTITLE0=Georgia On My Mind
TTITLE1=Time
TTITLE2=World Goes Round
TTITLE3=How Do I Get Off The Moon
TTITLE4=Only You (And You Alone)
TTITLE5=The Beginning Of The End
TTITLE6=Crazy Love
TTITLE7=Everything
TTITLE8=To Be A Man
TTITLE9=Let The Light Shine On You
TTITLE10=Millionaire
TTITLE11=Tell It Like It Is
TTITLE12=In A Different Light
TTITLE13=Why Didn't I Think Of That
EXTD=YEAR: 2005
EXTT0=
EXTT1=
EXTT2=
EXTT3=
EXTT4=
EXTT5=
EXTT6=
EXTT7=
EXTT8=
EXTT9=
EXTT10=
EXTT11=
EXTT12=
EXTT13=
PLAYORDER=
